<svg width="50" height="50" viewBox="0 0 50 50" fill="none" xmlns="http://www.w3.org/2000/svg">
<path d="M48.3333 25H1.66667M43.6667 36.6667H34.3333C29.9327 36.6667 27.7347 36.6667 26.3673 35.2993C25 33.932 25 31.734 25 27.3333V25M6.33334 48.3333V25V14.5C6.33334 11.8703 7.38334 11 9.83334 11C12.2833 11 13.3333 11.8703 13.3333 14.5M43.6667 25V48.3333M32.0933 3.06433C31.2551 2.2816 30.1509 1.84625 29.004 1.84625C27.8571 1.84625 26.753 2.2816 25.9147 3.06433C24.9487 3.98133 24.58 5.036 25.6463 6.051L28.9503 9.19633C30.0143 10.209 31.118 9.873 32.0933 8.94433C32.4976 8.56871 32.82 8.11376 33.0405 7.6079C33.261 7.10204 33.3748 6.55615 33.3748 6.00433C33.3748 5.45251 33.261 4.90662 33.0405 4.40077C32.82 3.89491 32.4976 3.43996 32.0933 3.06433ZM32.0933 3.06433C33.2507 2.30367 34.5503 1.242 35.9947 1.844C36.6713 2.12867 37.138 2.82167 38.069 4.20767L41.5643 9.418C42.8827 11.3827 43.5407 12.365 43.6503 13.478C43.76 14.5887 43.305 15.6713 42.3927 17.8297L39.3687 25M13.3333 14.5V25M13.3333 14.5C13.3333 11.8703 14.3833 11 16.8333 11C19.2833 11 20.3333 11.8703 20.3333 14.5V25" stroke="#594E48" stroke-width="3" stroke-linecap="round" stroke-linejoin="round"/>
</svg>
