<svg width="34" height="34" viewBox="0 0 34 34" fill="none" xmlns="http://www.w3.org/2000/svg">
<path d="M1.54 34C1.1 34 0.733333 33.8533 0.44 33.56C0.146666 33.2667 0 32.9 0 32.46V7.64C0 7.216 0.0933331 6.85467 0.28 6.556C0.466666 6.25733 0.755333 6.04667 1.146 5.924L17.878 0.77C18.3393 0.631333 18.7573 0.709999 19.132 1.006C19.5053 1.302 19.692 1.68467 19.692 2.154V6H22.462C22.9007 6 23.2667 6.14667 23.56 6.44C23.8533 6.73333 24 7.1 24 7.54V13.308H22V8H2V32H15.196L17.196 34H1.54ZM7.382 6H17.69V2.978L7.382 6ZM25.382 33.308C23.1553 33.308 21.2653 32.532 19.712 30.98C18.1587 29.4267 17.382 27.536 17.382 25.308C17.382 23.08 18.1587 21.1893 19.712 19.636C21.2653 18.0827 23.1553 17.3067 25.382 17.308C27.6087 17.3093 29.4993 18.0853 31.054 19.636C32.6087 21.1867 33.3847 23.0773 33.382 25.308C33.3793 27.5387 32.6033 29.4293 31.054 30.98C29.5047 32.5307 27.614 33.3067 25.382 33.308ZM23.652 29.078L29.112 25.232L23.652 21.384V29.078Z" fill="#DEDEDE"/>
</svg>
