<svg width="42" height="44" viewBox="0 0 42 44" fill="none" xmlns="http://www.w3.org/2000/svg">
<path d="M31.782 3.60249C31.7822 2.89994 31.5033 2.22607 31.0066 1.72915C30.51 1.23222 29.8363 0.952943 29.1337 0.952744C28.7859 0.952645 28.4414 1.02107 28.1199 1.1541C27.7985 1.28713 27.5064 1.48217 27.2604 1.72809C26.7635 2.22473 26.4842 2.89844 26.484 3.60099C26.484 5.06349 29.133 10.0015 29.133 10.0015C29.133 10.0015 31.782 5.06499 31.782 3.60249ZM27.867 3.60249C27.861 3.43268 27.8893 3.2634 27.9502 3.10475C28.011 2.9461 28.1032 2.80133 28.2212 2.67906C28.3392 2.55679 28.4806 2.45952 28.637 2.39305C28.7934 2.32659 28.9615 2.29228 29.1314 2.29218C29.3014 2.29208 29.4696 2.32618 29.626 2.39247C29.7825 2.45875 29.924 2.55585 30.0421 2.67798C30.1603 2.80011 30.2526 2.94478 30.3137 3.10335C30.3747 3.26193 30.4032 3.43117 30.3975 3.60099C30.3864 3.92903 30.2483 4.23993 30.0124 4.46813C29.7765 4.69633 29.4612 4.82398 29.1329 4.82418C28.8047 4.82437 28.4893 4.69709 28.2531 4.46917C28.0169 4.24125 27.8785 3.93051 27.867 3.60249ZM34.9215 25.7425C34.0815 25.7425 33.276 25.813 32.5365 25.927L13.65 18.964C13.95 18.694 14.118 18.394 14.118 18.079C14.1143 17.9129 14.0689 17.7504 13.986 17.6065L26.601 14.2495C27.291 14.455 28.1355 14.5795 29.07 14.5795C31.35 14.5795 33.195 13.8535 33.195 12.9565C33.195 12.0565 31.35 11.332 29.07 11.332C26.79 11.332 24.945 12.0595 24.945 12.9565C24.947 13.0615 24.974 13.1625 25.026 13.2595L11.844 16.3C10.7391 15.9867 9.59489 15.8336 8.44647 15.8455C5.31597 15.8455 2.77647 16.846 2.77647 18.0805C2.77647 19.315 5.31597 20.3155 8.44647 20.3155C9.30747 20.3155 10.1115 20.233 10.8435 20.098L28.8285 27.397C28.5435 27.685 28.3695 27.997 28.3695 28.3315C28.3695 28.6165 28.5135 28.8775 28.7235 29.131L10.0425 36.1225C9.80647 36.1135 9.56797 36.1085 9.32697 36.1075C4.46697 36.1075 0.521973 37.6615 0.521973 39.5725C0.521973 41.488 4.46697 43.042 9.32697 43.042C14.187 43.042 18.132 41.491 18.132 39.574C18.132 39.244 18.0075 38.926 17.787 38.6245L33.186 30.8035C33.741 30.8635 34.3155 30.901 34.9185 30.901C38.538 30.901 41.4735 29.746 41.4735 28.3165C41.4735 26.9005 38.538 25.7425 34.9185 25.7425H34.9215Z" fill="#DEDEDE"/>
</svg>
